<?xml version="1.0" standalone="no"?>
<!DOCTYPE svg PUBLIC "-//W3C//DTD SVG 20010904//EN" "http://www.w3.org/TR/2001/REC-SVG-20010904/DTD/svg10.dtd">
<svg version="1.0" xmlns="http://www.w3.org/2000/svg"
  viewBox="0 0 48 48" fill="#000">
  <g transform="translate(0,48) scale(0.1,-0.1)" fill="#000000" stroke="none">
    <path
      d="M195 451 c-104 -26 -169 -108 -169 -211 2 -193 228 -286 365 -149 21
21 39 43 39 48 0 5 -18 13 -41 19 -36 9 -45 8 -76 -14 -22 -14 -50 -24 -72
-24 -35 0 -101 31 -101 48 0 5 68 24 151 43 89 20 154 39 157 47 7 20 -15 85
-39 116 -45 57 -146 94 -214 77z m113 -111 c17 -11 32 -23 32 -28 0 -10 -208
-57 -216 -49 -11 10 31 71 57 84 36 19 90 16 127 -7z" />
  </g>
</svg>